<?xml version="1.0" encoding="UTF-8"?>
<svg width="439px" height="300px" viewBox="0 0 439 300" version="1.1" xmlns="http://www.w3.org/2000/svg" xmlns:xlink="http://www.w3.org/1999/xlink">
    <!-- Generator: Sketch 52.6 (67491) - http://www.bohemiancoding.com/sketch -->
    <title>lifecoach-logo-dark</title>
    <desc>Created with Sketch.</desc>
    <g id="lifecoach-logo-dark" stroke="none" stroke-width="1" fill="none" fill-rule="evenodd">
        <g id="image_" transform="translate(216.919236, 152.554660) rotate(-2.000000) translate(-216.919236, -152.554660) translate(-2.080764, 7.554660)">
            <path d="M33.39,107.25 C33.39,108.09 33.42,108.94 33.49,109.8 C34.23,123.77 44.19,125.85 52.96,125.85 C65.6,125.85 70.36,116.19 85.82,96.57 C86.85,95.26 87.95,93.97 89.11,92.69 C85.74,92.12 82.23,91.99 79.08,91.99 C61.81,91.99 45.69,98.84 33.39,107.25" id="Fill-1" fill="#00E8C9"></path>
            <path d="M198.52,231.99 C218.78,218.45 230.93,212.48 238.27,216.82 C245.32,211.68 250.74,204.53 254.78,196.55 C251.93,181.17 245.09,167.61 235.01,156.37 C222.45,142.36 211.08,144.67 199.49,160.69 C196.5,180.83 181.52,199.51 164.03,211.64 C136.29,230.87 86.43,225.59 55.97,225.08 C25.52,224.57 0.33,236.14 0.33,260.65 C0.33,266.94 4.58,272.56 13.43,272.56 C22.28,272.56 32.49,266.77 44.4,251.29 C56.31,235.8 66.41,229.5 83.54,234.44 C112.88,242.89 137.24,245.37 156.55,244.11 C159.15,242.09 162.37,240.33 166.28,239 C176.48,235.53 187.4,234.1 198.52,231.99" id="Fill-3" fill="#00E8C9"></path>
            <path d="M170.17,80.12 C170.77,84.01 170.99,88.26 170.99,92.7 C170.99,121.39 117.63,106.23 117.63,132.09 C117.63,135.09 119.65,137.42 122.77,138.71 C135.32,133.89 149.56,127.03 162.65,115.35 C180.33,99.57 180.92,89.03 170.17,80.12" id="Fill-5" fill="#00E8C9"></path>
            <path d="M215.93,112.65 C212.311,112.41 208.46,112.33 204.4,112.4 C195.24,112.56 186.55,114.38 178.4,117.23 C183.35,118.33 187.69,120.9 190.47,124.81 C193.85,129.54 196.25,134.35 197.8,139.18 C208.25,129.69 214.73,119.8 215.93,112.65" id="Fill-6" fill="#01B89F"></path>
            <path d="M124.86,67.06 C131,63.13 136.39,58.44 140.59,53.2 C139.97,50.54 139.77,47.67 139.98,44.52 C123.545857,62.1655744 89.2510096,70.9683053 67.7831929,76.5959074 C66.3908711,76.9608925 50.3822517,82.6790916 48.1464721,84.0080281 C46.2346658,85.1443964 28.0461204,95.8737913 33.8334637,112.437648 C34.8141832,115.244548 36.4834056,118.218994 39.0370113,121.342695 C49.7862865,134.491755 102.222478,78.0124652 113.64,73.03 C117.36,70.8 121.13,68.79 124.86,67.06 Z" id="Fill-7" fill="#00E8C9"></path>
            <path d="M76.4456342,82.2785341 C73.2010863,84.4167638 68.2140718,91.6105534 79.08,91.99 C82.1794549,92.0982354 85.74,92.12 89.11,92.69 C95.81,85.32 104.54,78.5 113.64,73.03 C98.47,79.65 79.6901821,80.1403044 76.4456342,82.2785341 Z" id="Fill-8" fill="#00AEE7"></path>
            <path d="M124.86,67.06 C131.58,63.93 138.14,61.72 143.85,60.72 C142.29,58.4 141.22,55.91 140.59,53.2 C136.39,58.44 131,63.13 124.86,67.06" id="Fill-10" fill="#00AEE7"></path>
            <path d="M143.85,60.72 C138.14,61.72 131.58,63.93 124.86,67.06 C121.34,69.32 117.57,71.32 113.64,73.03 C104.54,78.5 95.81,85.32 89.11,92.69 C96.98,94 104.1,97.66 104.1,107.39 C104.1,118.08 97.69,118.3 97.69,126.21 C97.69,135.19 109.88,137.33 115.23,128.78 C120.57,120.22 117.58,114.87 131.7,97.33 C142.36,84.08 160.48,80.11 168.7,78.95 C166.24,77.12 163.3,75.34 159.93,73.6 C152.34,69.68 147.06,65.57 143.85,60.72" id="Fill-11" fill="#C253EC"></path>
            <path d="M254.78,196.55 C263.55,179.22 275.463062,166.378765 264.29,144.84 C256.590468,129.9973 246.95,114.64 215.93,112.65 C214.73,119.8 208.25,129.69 197.8,139.18 C200.11,146.38 200.54,153.63 199.49,160.69 C211.08,144.67 222.45,142.36 235.01,156.37 C245.09,167.61 251.93,181.17 254.78,196.55 Z" id="Fill-12" fill="#00AEE7"></path>
            <path d="M197.8,139.18 C186.68,149.3 171.06,158.97 152.58,164.39 C116.11,175.09 111.73,169.5 87.66,169.5 C63.58,169.5 47.05,181.42 47.05,198.92 C47.05,205.49 51.42,207.19 61.88,199.65 C72.34,192.11 91.79,185.31 112.94,180.93 C134.1,176.55 138.23,179.47 143.1,186.52 C147.96,193.57 151.12,201.6 161.82,201.6 C172.52,201.6 187.6,177.28 199.27,160.99 C199.34,160.89 199.42,160.79 199.49,160.69 C200.54,153.63 200.11,146.38 197.8,139.18" id="Fill-13" fill="#C253EC"></path>
            <path d="M278.05,246.45 C278.07,246.46 278.09,246.47 278.11,246.47 C278.13,246.43 278.141,246.39 278.15,246.36 C278.11,246.4 278.08,246.43 278.05,246.45" id="Fill-18" fill="#FBDD2D"></path>
            <path d="M150.03,60.15 C148.12,60.15 146.05,60.35 143.85,60.72 C147.06,65.57 152.34,69.68 159.93,73.6 C163.3,75.34 166.24,77.12 168.7,78.95 C169.15,78.9 169.57,78.84 169.95,78.79 C167.97,67.86 162.67,60.15 150.03,60.15" id="Fill-19" fill="#FF6D8C"></path>
            <path d="M198.52,231.99 C187.4,234.1 176.48,235.53 166.28,239 C162.37,240.33 159.15,242.09 156.55,244.11 C175.24,242.92 189.2,238.23 198.35,232.11 C198.41,232.07 198.46,232.03 198.52,231.99" id="Fill-20" fill="#273667"></path>
            <path d="M254.78,196.55 C250.74,204.53 245.32,211.68 238.27,216.82 C240.38,218.07 242.09,220.17 243.48,223.18 C246.302302,225.089817 261.426618,233.362897 264.955618,233.202897 C266.256618,229.242897 256.4,213.49 256.17,208.65 C255.98,204.5 255.51,200.47 254.78,196.55 Z" id="Fill-21" fill="#273667"></path>
            <path d="M238.27,216.82 C237.87,217.11 237.47,217.4 237.07,217.67 C224.52,226.19 211.391,229.56 198.52,231.99 C198.46,232.03 198.41,232.07 198.35,232.11 C189.2,238.23 175.24,242.92 156.55,244.11 C144.53,253.45 145.72,268.32 152.44,271.67 C160.61,275.75 177.4,272.35 186.7,256.02 C194.49,242.34 220.25,227.7 243.48,223.18 C242.09,220.17 240.38,218.07 238.27,216.82" id="Fill-22" fill="#FF6D8C"></path>
            <path d="M215.93,112.65 C215.98,112.39 216.02,112.13 216.05,111.87 C217.75,97.28 213.13,78.51 172.98,78.51 C172.98,78.51 171.86,78.56 169.95,78.79 C170.03,79.23 170.11,79.67 170.17,80.12 C180.92,89.03 180.33,99.57 162.65,115.35 C149.56,127.03 135.32,133.89 122.77,138.71 C129.56,141.52 141.56,139.44 149.44,128.68 C156.72,118.54 168.73,115.07 178.4,117.23 C186.55,114.38 195.24,112.56 204.4,112.4 C208.46,112.33 212.311,112.41 215.93,112.65" id="Fill-23" fill="#273667"></path>
            <path d="M168.7,78.95 C169.21,79.34 169.7,79.73 170.17,80.12 C170.11,79.67 170.03,79.23 169.95,78.79 C169.57,78.84 169.15,78.9 168.7,78.95" id="Fill-24" fill="#202A1B"></path>
            <path d="M149.44,128.68 C141.56,139.44 129.56,141.52 122.77,138.71 C102.92,146.36 87.33,148.93 87.33,157.55 C87.33,171.62 99.58,168.44 117.5,155.96 C131.19,146.43 152.03,126.44 178.4,117.23 C168.73,115.07 156.72,118.54 149.44,128.68" id="Fill-25" fill="#FF6D8C"></path>
            <path d="M275.662,283.795 C275.55,283.707 275.436,283.619 275.328,283.526 C275.436,283.619 275.55,283.707 275.662,283.795" id="Fill-26" fill="#202A1B"></path>
            <path d="M276.698,284.507 C276.561,284.426 276.426,284.343 276.295,284.256 C276.426,284.343 276.561,284.425 276.698,284.507" id="Fill-27" fill="#202A1B"></path>
            <path d="M327.36,258.28 C311.473,281.449 305.922,285.39 292.309,286.056 C305.922,285.39 311.474,281.449 327.37,258.28 C346.2,230.83 380.68,226.97 380.68,226.97 L380.5,226.62 L380.68,226.97 C380.68,226.97 346.189,230.83 327.36,258.28" id="Fill-28" fill="#202A1B"></path>
            <path d="M282.104,286.116 C281.928,286.101 281.766,286.072 281.595,286.052 C281.766,286.072 281.928,286.101 282.104,286.116" id="Fill-29" fill="#202A1B"></path>
            <path d="M273.893,281.956 C273.848,281.893 273.797,281.835 273.753,281.772 C273.797,281.835 273.848,281.893 273.893,281.956" id="Fill-30" fill="#202A1B"></path>
            <path d="M274.735,282.956 C274.651,282.869 274.563,282.786 274.483,282.696 C274.563,282.786 274.651,282.869 274.735,282.956" id="Fill-31" fill="#202A1B"></path>
            <path d="M277.854,285.097 C277.694,285.028 277.541,284.955 277.389,284.88 C277.541,284.955 277.694,285.028 277.854,285.097" id="Fill-32" fill="#202A1B"></path>
            <path d="M424.74,145.18 C424.74,138.78 411.66,139.97 411.66,139.97 C411.66,139.97 417.311,135.36 417.311,128.97 C417.311,122.58 408.391,123.18 404.37,121.09 C400.359,119.01 400.924,111.059 402.74,106.68 C403.969,103.715 411.806,97.284 410.7,91.571 C409.368,84.691 395.01,83.78 371.971,80.07 C348.93,76.35 339.71,66.74 332.28,55.54 C312.36,25.51 287.09,0.54 232.24,0.54 C213.16,0.54 198.91,2.86 187.51,6.9 C180.47,9.4 174.52,12.55 169.2,16.21 C164.25,19.62 159.85,23.47 155.62,27.66 C150.55,32.67 145.73,38.17 140.52,43.94 C140.34,44.14 140.16,44.33 139.98,44.52 C139.77,47.67 139.97,50.54 140.59,53.2 C141.22,55.91 142.29,58.4 143.85,60.72 C146.05,60.35 148.12,60.15 150.03,60.15 C162.67,60.15 167.97,67.86 169.95,78.79 C171.86,78.56 172.98,78.51 172.98,78.51 C213.13,78.51 217.75,97.28 216.05,111.87 C216.02,112.13 215.98,112.39 215.93,112.65 C246.106769,119.002832 257.638216,130.206454 264.29,144.84 C269.896396,157.173751 263.55,179.22 254.78,196.55 C255.51,200.47 255.98,204.5 256.17,208.65 C256.4,213.49 257.696537,222.153327 261.396097,227.71053 C265.095658,233.267733 264.041957,239.272482 284.591879,234.995696 C305.141801,230.71891 289.574,238.632 291.91,237.56 C313.89,227.48 340.49,229.49 356.04,229.49 C365.04,229.49 373.34,228.28 380.5,226.62 C396.279,222.97 406.529,217.1 406.529,217.1 C435.77,201.43 437.38,196.1 437.38,188.67 C437.38,175.75 420.42,170.9 420.42,161.53 C420.42,152.16 424.74,151.57 424.74,145.18 Z" id="Fill-33" fill="#FFFFFF"></path>
            <path d="M280.55,285.906 C280.361,285.871 280.186,285.825 280.005,285.784 C280.186,285.825 280.361,285.871 280.55,285.906" id="Fill-34" fill="#202A1B"></path>
            <path d="M279.135,285.565 C278.958,285.512 278.789,285.451 278.619,285.391 C278.789,285.451 278.958,285.512 279.135,285.565" id="Fill-35" fill="#202A1B"></path>
            <path d="M271.455,271.262 C271.457,271.229 271.457,271.196 271.459,271.162 C271.457,271.196 271.457,271.229 271.455,271.262" id="Fill-36" fill="#202A1B"></path>
            <path d="M271.855,277.115 C271.838,277.034 271.824,276.95 271.809,276.868 C271.824,276.95 271.838,277.034 271.855,277.115" id="Fill-37" fill="#202A1B"></path>
            <path d="M271.487,274.353 C271.481,274.265 271.476,274.176 271.471,274.087 C271.476,274.176 271.481,274.265 271.487,274.353" id="Fill-38" fill="#202A1B"></path>
            <path d="M272.172,278.386 C272.156,278.332 272.145,278.277 272.129,278.223 C272.145,278.277 272.156,278.332 272.172,278.386" id="Fill-39" fill="#202A1B"></path>
            <path d="M271.628,275.77 C271.615,275.679 271.605,275.587 271.595,275.495 C271.605,275.587 271.615,275.679 271.628,275.77" id="Fill-40" fill="#202A1B"></path>
            <path d="M271.43,272.857 C271.43,272.786 271.428,272.714 271.428,272.643 C271.428,272.714 271.43,272.786 271.43,272.857" id="Fill-41" fill="#202A1B"></path>
            <path d="M81.5622038,130.558439 C86.3392038,129.664439 89.8232038,126.862439 89.3442038,124.298439 C88.8642038,121.735439 84.6032038,120.381439 79.8262038,121.275439 C75.0482038,122.168439 71.5642038,124.971439 72.0442038,127.534439 C72.5232038,130.098439 76.7852038,131.451439 81.5622038,130.558439" id="Fill-42" fill="#C253EC"></path>
            <path d="M125.411671,266.446561 C132.111753,265.188905 136.99831,261.247125 136.326479,257.640157 C135.653245,254.034596 129.676889,252.129824 122.976807,253.38748 C116.275323,254.643729 111.388765,258.586916 112.061999,262.192477 C112.733831,265.799445 118.711588,267.70281 125.411671,266.446561" id="Fill-42" fill="#00E8C9"></path>
            <path d="M174.061442,141.390622 C181.585702,139.951138 187.073356,135.439468 186.318882,131.311016 C185.562833,127.184175 178.851326,125.004017 171.327066,126.443501 C163.801231,127.881374 158.313577,132.394654 159.069625,136.521496 C159.824099,140.649948 166.537182,142.828495 174.061442,141.390622" id="Fill-42" fill="#C253EC"></path>
            <path d="M224.202643,244.278899 C222.342643,245.401899 220.635643,246.742899 219.038643,248.214899 C219.024643,248.227899 219.009643,248.241899 218.994643,248.254899 C217.273643,249.828899 215.905643,251.739899 215.057643,253.909899 C215.044643,253.947899 215.022643,253.980899 215.009643,254.018899 C212.671643,260.159899 210.330643,267.889899 210.030643,274.576899 C210.028643,274.610899 210.028643,274.643899 210.026643,274.676899 C210.007643,275.142899 209.997643,275.602899 209.999643,276.057899 C209.999643,276.128899 210.001643,276.200899 210.001643,276.271899 C210.005643,276.687899 210.018643,277.097899 210.042643,277.501899 C210.047643,277.590899 210.052643,277.679899 210.058643,277.767899 C210.085643,278.154899 210.121643,278.534899 210.166643,278.909899 C210.176643,279.001899 210.186643,279.093899 210.199643,279.184899 C210.249643,279.558899 210.309643,279.922899 210.380643,280.282899 C210.395643,280.364899 210.409643,280.448899 210.426643,280.529899 C210.505643,280.907899 210.596643,281.276899 210.700643,281.637899 C210.716643,281.691899 210.727643,281.746899 210.743643,281.800899 C211.114643,283.048899 211.632643,284.187899 212.324643,285.186899 C212.368643,285.249899 212.419643,285.307899 212.464643,285.370899 C212.650643,285.625899 212.844643,285.874899 213.054643,286.110899 C213.134643,286.200899 213.222643,286.283899 213.306643,286.370899 C213.496643,286.567899 213.691643,286.759899 213.899643,286.940899 C214.007643,287.033899 214.121643,287.121899 214.233643,287.209899 C214.436643,287.370899 214.645643,287.524899 214.866643,287.670899 C214.997643,287.757899 215.132643,287.840899 215.269643,287.921899 C215.491643,288.053899 215.721643,288.177899 215.960643,288.294899 C216.112643,288.369899 216.265643,288.442899 216.425643,288.511899 C216.670643,288.618899 216.927643,288.713899 217.190643,288.805899 C217.360643,288.865899 217.529643,288.926899 217.706643,288.979899 C217.985643,289.062899 218.279643,289.131899 218.576643,289.198899 C218.757643,289.239899 218.932643,289.285899 219.121643,289.320899 C219.455643,289.381899 219.809643,289.425899 220.166643,289.466899 C220.337643,289.486899 220.499643,289.515899 220.675643,289.530899 C221.217643,289.577899 221.779643,289.604899 222.371643,289.604899 C225.561643,289.604899 228.596308,290.065786 230.880643,289.470899 C243.191887,286.264807 247.066117,283.069308 265.931643,261.694899 C289.235658,235.291736 319.251643,230.384899 319.251643,230.384899 L319.071643,230.034899 C311.911643,231.694899 303.611643,232.904899 294.611643,232.904899 C279.061643,232.904899 252.461643,230.894899 230.481643,240.974899 C228.145643,242.046899 226.063643,243.154899 224.202643,244.278899 Z" id="Fill-44" fill="#FF6D8C"></path>
            <path d="M224.202643,244.278899 C222.342643,245.401899 220.635643,246.742899 219.038643,248.214899 C219.024643,248.227899 219.009643,248.241899 218.994643,248.254899 C215.097825,252.629444 208.614142,257.94906 210.030643,274.576899 C210.033537,274.610879 210.028643,274.643899 210.026643,274.676899 C210.007643,275.142899 209.997643,275.602899 209.999643,276.057899 C209.999643,276.128899 210.001643,276.200899 210.001643,276.271899 C210.005643,276.687899 210.018643,277.097899 210.042643,277.501899 C210.047643,277.590899 210.052643,277.679899 210.058643,277.767899 C210.085643,278.154899 210.121643,278.534899 210.166643,278.909899 C210.176643,279.001899 210.186643,279.093899 210.199643,279.184899 C210.249643,279.558899 210.309643,279.922899 210.380643,280.282899 C210.395643,280.364899 210.409643,280.448899 210.426643,280.529899 C210.505643,280.907899 210.596643,281.276899 210.700643,281.637899 C210.716643,281.691899 210.727643,281.746899 210.743643,281.800899 C211.114643,283.048899 211.632643,284.187899 212.324643,285.186899 C212.368643,285.249899 212.419643,285.307899 212.464643,285.370899 C212.650643,285.625899 212.844643,285.874899 213.054643,286.110899 C213.134643,286.200899 213.222643,286.283899 213.306643,286.370899 C213.496643,286.567899 213.691643,286.759899 213.899643,286.940899 C214.007643,287.033899 214.121643,287.121899 214.233643,287.209899 C214.436643,287.370899 214.645643,287.524899 214.866643,287.670899 C214.997643,287.757899 215.132643,287.840899 215.269643,287.921899 C215.491643,288.053899 215.721643,288.177899 215.960643,288.294899 C216.112643,288.369899 216.265643,288.442899 216.425643,288.511899 C216.670643,288.618899 216.927643,288.713899 217.190643,288.805899 C217.360643,288.865899 217.529643,288.926899 217.706643,288.979899 C217.985643,289.062899 218.279643,289.131899 218.576643,289.198899 C218.757643,289.239899 218.932643,289.285899 219.121643,289.320899 C219.455643,289.381899 219.809643,289.425899 220.166643,289.466899 C220.337643,289.486899 220.499643,289.515899 220.675643,289.530899 C221.217643,289.577899 221.779643,289.604899 222.371643,289.604899 C225.561643,289.604899 228.596308,290.065786 230.880643,289.470899 C243.191887,286.264807 247.066117,283.069308 265.931643,261.694899 C289.235658,235.291736 319.251643,230.384899 319.251643,230.384899 L319.071643,230.034899 C311.911643,231.694899 303.611643,232.904899 294.611643,232.904899 C279.061643,232.904899 252.461643,230.894899 230.481643,240.974899 C228.145643,242.046899 226.063643,243.154899 224.202643,244.278899 Z" id="Fill-44" fill="#C253EC"></path>
        </g>
    </g>
</svg>