<?xml version="1.0" encoding="UTF-8"?>
<svg width="1200px" height="627px" viewBox="0 0 1200 627" version="1.1" xmlns="http://www.w3.org/2000/svg" xmlns:xlink="http://www.w3.org/1999/xlink">
    <!-- Generator: Sketch 52.6 (67491) - http://www.bohemiancoding.com/sketch -->
    <title>lifecoach-logo-og-sharing</title>
    <desc>Created with Sketch.</desc>
    <defs>
        <linearGradient x1="50%" y1="0%" x2="50%" y2="100%" id="linearGradient-1">
            <stop stop-color="#AA66E8" offset="0%"></stop>
            <stop stop-color="#C253EC" offset="100%"></stop>
        </linearGradient>
    </defs>
    <g id="lifecoach-logo-og-sharing" stroke="none" stroke-width="1" fill="none" fill-rule="evenodd">
        <rect id="Rectangle" fill="url(#linearGradient-1)" x="0" y="0" width="1200" height="627"></rect>
        <g id="image_" transform="translate(599.574565, 313.607678) rotate(-2.000000) translate(-599.574565, -313.607678) translate(306.574565, 120.107678)">
            <path d="M43.9492093,142.926152 C43.9492093,144.042513 43.9895898,145.172165 44.0838109,146.315106 C45.0798626,164.881261 58.4861799,167.645585 70.2907384,167.645585 C87.304378,167.645585 93.7114132,154.807428 114.520817,128.732413 C115.907214,126.991421 117.387831,125.277008 118.949209,123.575886 C114.413136,122.818355 109.688621,122.645585 105.448671,122.645585 C82.2029781,122.645585 60.5052036,131.749247 43.9492093,142.926152" id="Fill-1" fill="#FFFFFF"></path>
            <path d="M319.220993,289.463092 C328.648408,282.578507 335.900286,272.701252 341.302663,262.012733 C337.49158,241.412555 327.601125,223.274595 314.121927,208.219589 C297.326419,189.454407 282.122204,192.548452 266.623801,214.005855 C262.625507,240.981641 242.593921,266.001883 219.205908,282.248967 C182.111369,308.005887 115.437479,300.933784 74.7056965,300.250683 C33.9872859,299.567582 0.302663226,315.064595 0.302663226,347.893618 C0.302663226,356.318528 5.98585682,363.846031 17.8202717,363.846031 C29.6546866,363.846031 43.3077234,356.090828 59.2340377,335.356708 C75.160352,314.609195 88.6662944,306.17089 111.572908,312.787593 C150.807002,324.105636 183.38173,327.427381 209.203487,325.73972 C212.680265,323.034105 216.98612,320.676738 222.214658,318.895318 C235.854322,314.247553 250.456787,312.332192 265.326696,309.50603 C292.418814,291.370372 309.405783,283.650038 319.220993,289.463092 Z" id="Fill-3" fill="#FFFFFF"></path>
            <path d="M227.015217,104.766467 C227.817797,109.981605 228.410445,117.130553 228.410445,123.083049 C228.410445,161.546367 157.034375,141.222076 157.034375,175.891348 C157.034375,179.913305 159.736392,183.037025 163.909806,184.766467 C180.697094,178.304522 206.917644,170.302195 225.245289,155.565004 C252.188953,133.899704 241.99624,116.967824 227.313586,106.217642 L227.015217,104.766467 Z" id="Fill-5" fill="#FFFFFF"></path>
            <path d="M290.279034,148.647654 C285.432281,148.324781 278.821573,147.960836 273.38421,148.055008 C261.11666,148.270256 249.193939,151.420381 238.279034,155.2545 C244.908332,156.734335 251.192399,160.477254 254.91552,165.737396 C259.442193,172.100688 263.285116,180.542073 265.360957,187.039896 C279.356142,174.272952 288.637884,159.245981 290.244987,149.627051 L290.279034,148.647654 Z" id="Fill-6" fill="#FFFFFF"></path>
            <path d="M168.843671,92.3456298 C177.038786,87.1107359 182.544505,77.3779532 188.150284,70.3980947 C187.322765,66.8548841 187.055823,63.0319463 187.336112,58.836039 C165.401307,82.3405452 119.627653,94.0660826 90.9743571,101.56224 C89.1160121,102.048413 67.749158,109.665249 64.7650419,111.435438 C62.2133362,112.949119 37.9369143,127.241038 45.6613357,149.30466 C46.9703111,153.043547 49.1982379,157.005609 52.6065593,161.166485 C66.9537177,178.681482 135.825348,104.527491 151.064421,97.8906771 C154.316797,98.0040249 163.865205,94.6500487 168.843671,92.3456298 Z" id="Fill-7" fill="#FFFFFF"></path>
            <path d="M102.549846,109.36462 C98.2189736,112.192391 91.5622302,121.70605 106.066238,122.207861 C110.203438,122.351 114.956108,122.379784 119.454436,123.133598 C128.397698,113.386905 140.050636,104.367576 152.197456,97.1335985 C131.948307,105.888431 106.880718,106.536849 102.549846,109.36462 Z" id="Fill-8" fill="#FFFFFF"></path>
            <path d="M195.350229,80.6888744 C193.270102,77.5561337 190.707433,70.7505977 189.867381,67.0912324 C184.267038,74.1669054 175.537398,83.7844777 167.350229,89.0912324 C176.310779,84.8647331 187.736429,82.0391937 195.350229,80.6888744 Z" id="Fill-10" fill="#FFFFFF"></path>
            <path d="M192.443854,80.8152589 C184.839129,82.1492048 176.102353,85.0972253 167.152485,89.2724759 C162.464459,92.2871936 157.443477,94.9550854 152.209402,97.2361329 C140.089789,104.532817 128.462951,113.630328 119.53972,123.461509 C130.021187,125.208978 139.503786,130.09122 139.503786,143.070514 C139.503786,157.330395 130.966784,157.623863 130.966784,168.175375 C130.966784,180.154209 147.201738,183.008854 154.327005,171.603616 C161.438953,160.185039 157.456795,153.048429 176.262172,129.651018 C190.459433,111.976235 214.592113,106.68047 225.53972,105.133093 C222.263429,102.691972 218.347862,100.317548 213.859609,97.996482 C203.751053,92.7674141 196.719014,87.2848965 192.443854,80.8152589" id="Fill-11" fill="#FFFFFF"></path>
            <path d="M340.924909,261.762636 C352.614676,238.628428 370.140306,219.350857 355.247433,190.598275 C344.984521,170.78442 330.488092,152.419132 289.140705,149.762636 C287.541193,159.307332 278.903828,172.509716 264.974744,185.17813 C268.053805,194.789573 268.626963,204.467761 267.22739,213.892314 C282.676011,192.506855 297.769996,193.481178 314.511555,212.183443 C327.947457,227.187972 337.126067,241.231527 340.924909,261.762636 Z" id="Fill-12" fill="#FFFFFF"></path>
            <path d="M266.095229,184.667702 C251.194131,198.277514 230.262913,211.282147 205.499218,218.571197 C156.628442,232.961019 150.759125,225.443346 118.50468,225.443346 C86.2368352,225.443346 64.0861926,241.473876 64.0861926,265.00863 C64.0861926,273.84425 69.9421096,276.130483 83.9587897,265.990366 C97.9754698,255.850249 124.038991,246.705315 152.380557,240.814902 C180.735524,234.92449 186.269834,238.851431 192.795765,248.332575 C199.308295,257.813719 203.542779,268.61281 217.881066,268.61281 C232.219352,268.61281 252.426956,235.906225 268.065069,213.998731 C268.15887,213.864246 268.266073,213.729762 268.359874,213.595278 C269.766903,204.100685 269.190691,194.350573 266.095229,184.667702" id="Fill-13" fill="#FFFFFF"></path>
            <path d="M372.180672,328.440348 C372.200672,328.450348 372.220672,328.460348 372.240672,328.460348 C372.260672,328.420348 372.271672,328.380348 372.280672,328.350348 C372.240672,328.390348 372.210672,328.420348 372.180672,328.440348" id="Fill-18" fill="#FBDD2D"></path>
            <path d="M201.590748,76.0439631 C199.060184,76.0439631 192.846918,80.6330653 189.932133,81.1354516 C194.18507,87.7207864 202.464303,93.1791941 212.520313,98.501774 C216.985234,100.864348 222.016745,102.559187 225.276005,105.043963 C225.872211,104.976073 226.42867,104.894605 226.932133,104.826715 C224.308826,89.9859501 222.826732,77.0200134 206.079966,77.0200134 L201.590748,76.0439631 Z" id="Fill-19" fill="#FFFFFF"></path>
            <path d="M221.837525,317.954749 C216.620465,319.710525 212.509206,322.51376 209.040062,325.180426 C233.977874,323.609469 252.604512,317.41805 264.813233,309.338842 C264.89329,309.286037 264.960004,309.233231 265.040062,309.180426 C250.202797,311.965905 235.447246,313.373891 221.837525,317.954749 Z" id="Fill-20" fill="#FFFFFF"></path>
            <path d="M341.564661,261.656188 C336.1398,272.391444 328.632986,282.699306 319.166336,289.613995 C321.999617,291.295582 323.852191,292.863599 325.718665,296.912862 C329.508416,299.482083 350.260748,311.86866 354.999444,311.653417 C356.74641,306.326147 344.209605,285.120757 343.900764,278.609649 C343.645634,273.026778 342.544896,266.929647 341.564661,261.656188 Z" id="Fill-21" fill="#FFFFFF"></path>
            <path d="M317.154941,289.160767 C300.300643,300.486067 282.668765,304.965675 265.383373,308.195779 C265.302795,308.248949 265.235646,308.30212 265.155068,308.35529 C252.866875,316.490365 234.118987,322.724597 209.018842,324.306418 C192.87632,336.721712 194.474456,356.487817 203.499227,360.94084 C214.471308,366.364224 237.019806,361.844738 249.509445,340.137912 C259.971197,321.953626 294.566153,302.493251 325.763391,296.484993 C323.89666,292.483918 321.600178,289.692471 318.766507,288.030895 C318.229318,288.416381 317.692129,288.801866 317.154941,289.160767 Z" id="Fill-22" fill="#FFFFFF"></path>
            <path d="M289.68054,148.65215 C291.94983,129.110151 284.560747,103.726507 230.965464,103.726507 C230.965464,103.726507 229.564149,104.477172 227.014535,104.785237 C227.121325,105.374577 227.228115,105.963918 227.308208,106.566653 C241.658128,118.5008 240.870551,132.618186 217.269938,153.754083 C199.796408,169.398397 180.78777,178.586752 164.035072,185.042711 C173.098882,188.806454 189.4805,186.928886 199.999325,172.51683 C209.717225,158.935208 225.385986,153.379048 238.29424,156.272174 C249.173482,152.454855 260.773557,150.017128 273.001023,149.802822 C278.420621,149.709063 283.56123,149.816216 288.392147,150.137675 C289.599442,150.179977 289.640494,149.000396 289.68054,148.65215 Z" id="Fill-23" fill="#FFFFFF"></path>
            <path d="M225.414821,104.921372 C226.108698,105.507838 226.775365,106.094305 227.414821,106.680771 C227.333188,106.004079 227.224344,105.342425 227.115501,104.680771 C226.598494,104.755959 226.027065,104.846184 225.414821,104.921372" id="Fill-24" fill="#202A1B"></path>
            <path d="M163.987732,184.329587 C137.396099,194.598635 116.511285,198.048498 116.511285,209.619635 C116.511285,228.506629 132.921738,224.237927 156.927887,207.485284 C175.267406,194.6926 203.185272,167.858839 238.511285,155.495711 C225.559831,150.928057 209.468131,157.254201 199.715633,170.865724 C189.159358,185.309509 173.083811,188.101616 163.987732,184.329587 Z" id="Fill-25" fill="#FFFFFF"></path>
            <path d="M368.653916,378.439591 C368.541916,378.351591 368.427916,378.263591 368.319916,378.170591 C368.427916,378.263591 368.541916,378.351591 368.653916,378.439591" id="Fill-26" fill="#202A1B"></path>
            <path d="M369.652907,379.464881 C369.515907,379.383881 369.380907,379.300881 369.249907,379.213881 C369.380907,379.300881 369.515907,379.382881 369.652907,379.464881" id="Fill-27" fill="#202A1B"></path>
            <path d="M438.119295,344.252467 C416.905707,375.437607 409.493569,380.742136 391.316407,381.638563 C409.493569,380.742136 416.907042,375.437607 438.132648,344.252467 C463.275964,307.305162 509.316407,302.109658 509.316407,302.109658 L509.076057,301.638563 L509.316407,302.109658 C509.316407,302.109658 463.261276,307.305162 438.119295,344.252467" id="Fill-28" fill="#202A1B"></path>
            <path d="M377.631234,381.649359 C377.455234,381.634359 377.293234,381.605359 377.122234,381.585359 C377.293234,381.605359 377.455234,381.634359 377.631234,381.649359" id="Fill-29" fill="#202A1B"></path>
            <path d="M366.627933,376.32851 C366.582933,376.26551 366.531933,376.20751 366.487933,376.14451 C366.531933,376.20751 366.582933,376.26551 366.627933,376.32851" id="Fill-30" fill="#202A1B"></path>
            <path d="M367.648424,377.4008 C367.564424,377.3138 367.476424,377.2308 367.396424,377.1408 C367.476424,377.2308 367.564424,377.3138 367.648424,377.4008" id="Fill-31" fill="#202A1B"></path>
            <path d="M371.647789,380.517071 C371.487789,380.448071 371.334789,380.375071 371.182789,380.300071 C371.334789,380.375071 371.487789,380.448071 371.647789,380.517071" id="Fill-32" fill="#202A1B"></path>
            <path d="M568.732373,193.653032 C568.732373,185.097062 551.216824,186.687937 551.216824,186.687937 C551.216824,186.687937 558.78413,180.524965 558.78413,171.982363 C558.78413,163.439762 546.839276,164.241884 541.454718,161.447825 C536.083551,158.667135 536.840148,148.037679 539.27197,142.183523 C540.917735,138.219703 551.412334,129.622289 549.931279,121.984749 C548.147586,112.787081 528.920656,111.569192 498.068919,106.609403 C467.214503,101.636245 454.867917,88.7889213 444.918335,73.8159733 C418.24328,33.6697565 384.40399,0.288103773 310.95385,0.288103773 C285.403646,0.288103773 266.32134,3.389643 251.055495,8.79059923 C241.628166,12.1327751 233.660466,16.3439167 226.536405,21.2368622 C219.907815,25.7955901 214.015734,30.942541 208.351302,36.5440278 C201.562019,43.2417483 195.107512,50.5945352 188.130753,58.3082772 C187.889714,58.5756513 187.648674,58.8296566 187.407634,59.083662 C187.126421,63.2948036 186.157519,67.5309305 186.987766,71.0870057 C187.831405,74.7099243 190.500976,77.6394225 192.589987,80.7409617 C195.536027,80.2463197 198.307983,79.9789456 200.865682,79.9789456 C217.792022,79.9789456 224.889301,90.2862161 227.540737,104.898209 C230.098436,104.590729 231.598238,104.523885 231.598238,104.523885 C285.363473,104.523885 291.550157,129.616942 289.273672,149.12188 C289.233498,149.469467 289.179934,149.817053 289.112979,150.164639 C329.522968,158.657552 344.964834,173.635343 353.8723,193.198496 C361.379877,209.687122 352.881359,239.160099 341.137371,262.328062 C342.114921,267.568594 342.744302,272.956181 342.998733,278.504193 C343.306728,284.974646 345.042933,296.55639 349.997048,303.985651 C354.951164,311.414911 353.540143,319.442482 381.058733,313.724974 C408.577323,308.007465 387.730337,318.58624 390.858496,317.153115 C420.292117,303.677462 455.912422,306.364572 476.73557,306.364572 C488.787553,306.364572 499.902159,304.746958 509.490181,302.527754 C530.619985,297.648177 544.345855,289.800748 544.345855,289.800748 C583.502747,268.851989 585.658713,261.72647 585.658713,251.793524 C585.658713,234.521159 562.947421,228.037337 562.947421,215.510862 C562.947421,202.984387 568.732373,202.195634 568.732373,193.653032 Z" id="Fill-33" fill="#FFFFFF"></path>
            <path d="M375.650453,381.60856 C375.461453,381.57356 375.286453,381.52756 375.105453,381.48656 C375.286453,381.52756 375.461453,381.57356 375.650453,381.60856" id="Fill-34" fill="#202A1B"></path>
            <path d="M373.672071,380.56537 C373.495071,380.51237 373.326071,380.45137 373.156071,380.39137 C373.326071,380.45137 373.495071,380.51237 373.672071,380.56537" id="Fill-35" fill="#202A1B"></path>
            <path d="M363.046962,362.155441 C363.048962,362.122441 363.048962,362.089441 363.050962,362.055441 C363.048962,362.089441 363.048962,362.122441 363.046962,362.155441" id="Fill-36" fill="#202A1B"></path>
            <path d="M363.827057,369.259576 C363.810057,369.178576 363.796057,369.094576 363.781057,369.012576 C363.796057,369.094576 363.810057,369.178576 363.827057,369.259576" id="Fill-37" fill="#202A1B"></path>
            <path d="M362.917365,366.236004 C362.911365,366.148004 362.906365,366.059004 362.901365,365.970004 C362.906365,366.059004 362.911365,366.148004 362.917365,366.236004" id="Fill-38" fill="#202A1B"></path>
            <path d="M363.755758,371.216357 C363.739758,371.162357 363.728758,371.107357 363.712758,371.053357 C363.728758,371.107357 363.739758,371.162357 363.755758,371.216357" id="Fill-39" fill="#202A1B"></path>
            <path d="M363.855456,368.274185 C363.842456,368.183185 363.832456,368.091185 363.822456,367.999185 C363.832456,368.091185 363.842456,368.183185 363.855456,368.274185" id="Fill-40" fill="#202A1B"></path>
            <path d="M362.980164,364.211222 C362.980164,364.140222 362.978164,364.068222 362.978164,363.997222 C362.978164,364.068222 362.980164,364.140222 362.980164,364.211222" id="Fill-41" fill="#202A1B"></path>
            <path d="M108.84812,173.211475 C115.166818,172.029594 119.775222,168.325309 119.141632,164.935663 C118.50672,161.547339 112.870553,159.757331 106.551854,160.939213 C100.231834,162.119772 95.62343,165.825379 96.2583421,169.213703 C96.8919314,172.603348 102.529422,174.392034 108.84812,173.211475" id="Fill-42" fill="#FFFFFF"></path>
            <path d="M168.095651,356.203693 C177.16161,354.476328 183.773667,349.062373 182.864604,344.108275 C181.953643,339.15611 173.866968,336.539944 164.80101,338.267309 C155.733154,339.992742 149.121096,345.408629 150.032057,350.360794 C150.94112,355.314892 159.029693,357.929125 168.095651,356.203693" id="Fill-42" fill="#FFFFFF"></path>
            <path d="M233.227219,188.310992 C243.392082,186.4018 250.805601,180.417955 249.786348,174.942373 C248.764968,169.468927 239.698089,166.577376 229.533227,168.486569 C219.366237,170.393626 211.952718,176.379606 212.974098,181.853052 C213.993351,187.328634 223.062357,190.218049 233.227219,188.310992" id="Fill-42" fill="#FFFFFF"></path>
            <path d="M300.076305,325.357917 C297.590681,326.861761 295.30952,328.657536 293.175358,330.628736 C293.156649,330.646145 293.136604,330.664893 293.116559,330.682301 C290.816688,332.790093 288.988552,335.349172 287.855321,338.255086 C287.837949,338.305973 287.808549,338.350165 287.791176,338.401052 C284.666774,346.624654 281.538362,356.976136 281.137455,365.930904 C281.134783,365.976434 281.134783,366.020625 281.13211,366.064817 C281.106719,366.688852 281.093356,367.304852 281.096028,367.914156 C281.096028,368.009235 281.098701,368.105652 281.098701,368.20073 C281.104046,368.757809 281.121419,369.306852 281.153492,369.847861 C281.160173,369.967044 281.166855,370.086227 281.174873,370.20407 C281.210955,370.722314 281.259064,371.231183 281.3192,371.733358 C281.332563,371.856558 281.345927,371.979758 281.3633,372.101619 C281.430118,372.602453 281.510299,373.089897 281.60518,373.571984 C281.625226,373.681793 281.643935,373.79428 281.666653,373.902749 C281.772225,374.408941 281.893833,374.90308 282.032814,375.386506 C282.054196,375.45882 282.068896,375.532472 282.090278,375.604785 C282.586066,377.27602 283.278299,378.80129 284.203058,380.139082 C284.261858,380.223447 284.330012,380.301117 284.390148,380.385482 C284.63871,380.72696 284.897964,381.060404 285.178599,381.376439 C285.285507,381.496961 285.403107,381.608108 285.515361,381.724613 C285.769268,381.988422 286.029858,382.245535 286.30782,382.487917 C286.452147,382.612456 286.604491,382.7303 286.754163,382.848144 C287.025444,383.063744 287.304742,383.26997 287.600077,383.465483 C287.77514,383.581987 287.955548,383.693135 288.138629,383.801605 C288.4353,383.97837 288.742662,384.144422 289.062052,384.3011 C289.265178,384.401535 289.469641,384.499292 289.683458,384.591692 C290.010865,384.734979 290.354309,384.862196 290.705771,384.985396 C290.932951,385.065744 291.158796,385.147431 291.395331,385.218405 C291.768174,385.329553 292.161063,385.421953 292.557961,385.511675 C292.799842,385.566579 293.033704,385.628179 293.286276,385.675049 C293.732619,385.756736 294.205689,385.815657 294.682769,385.870562 C294.911286,385.897344 295.127776,385.936179 295.362974,385.956266 C296.08728,386.019205 296.838313,386.055362 297.629436,386.055362 C301.892414,386.055362 305.94781,386.672549 309.000497,385.875918 C325.452713,381.582542 330.630066,377.30335 355.841142,348.68022 C386.983624,313.32293 427.095692,306.752033 427.095692,306.752033 L426.855148,306.283337 C417.286832,308.506295 406.19507,310.126643 394.167858,310.126643 C373.387508,310.126643 337.840415,307.43499 308.46729,320.933429 C305.345561,322.368977 302.563265,323.852734 300.076305,325.357917 Z" id="Fill-44" fill="#FF6D8C"></path>
            <path d="M300.270812,325.357917 C297.788994,326.861761 295.511326,328.657536 293.380432,330.628736 C293.361752,330.646145 293.341737,330.664893 293.321722,330.682301 C288.122158,336.540388 279.470912,343.664051 281.360963,365.930904 C281.364825,365.976407 281.358294,366.020625 281.355626,366.064817 C281.330274,366.688852 281.316931,367.304852 281.319599,367.914156 C281.319599,368.009235 281.322268,368.105652 281.322268,368.20073 C281.327605,368.757809 281.344951,369.306852 281.376975,369.847861 C281.383646,369.967044 281.390318,370.086227 281.398324,370.20407 C281.43435,370.722314 281.482385,371.231183 281.542429,371.733358 C281.555772,371.856558 281.569115,371.979758 281.586461,372.101619 C281.653177,372.602453 281.733236,373.089897 281.827972,373.571984 C281.847986,373.681793 281.866667,373.79428 281.88935,373.902749 C281.99476,374.408941 282.116183,374.90308 282.254951,375.386506 C282.2763,375.45882 282.290977,375.532472 282.312326,375.604785 C282.807355,377.27602 283.498528,378.80129 284.421871,380.139082 C284.480581,380.223447 284.548631,380.301117 284.608675,380.385482 C284.856856,380.72696 285.115713,381.060404 285.395918,381.376439 C285.502663,381.496961 285.620082,381.608108 285.732164,381.724613 C285.985683,381.988422 286.245874,382.245535 286.52341,382.487917 C286.667516,382.612456 286.819627,382.7303 286.96907,382.848144 C287.239935,383.063744 287.518806,383.26997 287.813689,383.465483 C287.988483,383.581987 288.168615,383.693135 288.351416,383.801605 C288.647633,383.97837 288.954524,384.144422 289.273424,384.3011 C289.476239,384.401535 289.680389,384.499292 289.893879,384.591692 C290.220785,384.734979 290.563703,384.862196 290.914626,384.985396 C291.141459,385.065744 291.366957,385.147431 291.60313,385.218405 C291.975403,385.329553 292.36769,385.421953 292.763981,385.511675 C293.005491,385.566579 293.238995,385.628179 293.49118,385.675049 C293.936839,385.756736 294.409185,385.815657 294.885534,385.870562 C295.113701,385.897344 295.32986,385.936179 295.564698,385.956266 C296.287895,386.019205 297.037777,386.055362 297.827689,386.055362 C302.08414,386.055362 306.133325,386.672549 309.181337,385.875918 C325.60836,381.582542 330.777785,377.30335 355.950255,348.68022 C387.045048,313.32293 427.095692,306.752033 427.095692,306.752033 L426.855516,306.283337 C417.301853,308.506295 406.227075,310.126643 394.218281,310.126643 C373.469752,310.126643 337.977092,307.43499 308.648947,320.933429 C305.531998,322.368977 302.753963,323.852734 300.270812,325.357917 Z" id="Fill-44" fill="#FFFFFF"></path>
        </g>
    </g>
</svg>